<?xml version="1.0" encoding="UTF-8" standalone="no"?><svg xmlns="http://www.w3.org/2000/svg" xmlns:xlink="http://www.w3.org/1999/xlink" contentScriptType="application/ecmascript" contentStyleType="text/css" height="588px" preserveAspectRatio="none" style="width:755px;height:588px;background:#FFFFFF;" version="1.1" viewBox="0 0 755 588" width="755px" zoomAndPan="magnify"><defs><filter height="300%" id="f1pioxkq0yk499" width="300%" x="-1" y="-1"><feGaussianBlur result="blurOut" stdDeviation="2.0"/><feColorMatrix in="blurOut" result="blurOut2" type="matrix" values="0 0 0 0 0 0 0 0 0 0 0 0 0 0 0 0 0 0 .4 0"/><feOffset dx="4.0" dy="4.0" in="blurOut2" result="blurOut3"/><feBlend in="SourceGraphic" in2="blurOut3" mode="normal"/></filter></defs><g><!--MD5=[529bd23faf390e7ceebc28d276bace7f]
cluster LogicLayer--><polygon fill="#FFFFFF" filter="url(#f1pioxkq0yk499)" points="33,6,125,6,132,28.2969,738,28.2969,738,207,33,207,33,6" style="stroke:#000000;stroke-width:1.5;"/><line style="stroke:#000000;stroke-width:1.5;" x1="33" x2="132" y1="28.2969" y2="28.2969"/><text fill="#000000" font-family="sans-serif" font-size="14" font-weight="bold" lengthAdjust="spacing" textLength="86" x="37" y="20.9951">LogicLayer</text><!--MD5=[ac8bce162a6e9aebb7bf893e79a5fa67]
cluster AbstractionLayer--><polygon fill="#FFFFFF" filter="url(#f1pioxkq0yk499)" points="16,231,158,231,165,253.2969,577,253.2969,577,394,16,394,16,231" style="stroke:#000000;stroke-width:1.5;"/><line style="stroke:#000000;stroke-width:1.5;" x1="16" x2="165" y1="253.2969" y2="253.2969"/><text fill="#000000" font-family="sans-serif" font-size="14" font-weight="bold" lengthAdjust="spacing" textLength="136" x="20" y="245.9951">AbstractionLayer</text><!--MD5=[b3eeb5d98d3988569c92a94d7c2ea02d]
cluster DataLayer--><polygon fill="#FFFFFF" filter="url(#f1pioxkq0yk499)" points="157,418,244,418,251,440.2969,545,440.2969,545,581,157,581,157,418" style="stroke:#000000;stroke-width:1.5;"/><line style="stroke:#000000;stroke-width:1.5;" x1="157" x2="251" y1="440.2969" y2="440.2969"/><text fill="#000000" font-family="sans-serif" font-size="14" font-weight="bold" lengthAdjust="spacing" textLength="81" x="161" y="432.9951">DataLayer</text><!--MD5=[e84758e3c63f7940b5bba305527ac989]
class RecipeContainer--><rect codeLine="13" fill="#FFFFFF" filter="url(#f1pioxkq0yk499)" height="124.8281" id="RecipeContainer" style="stroke:#2688D4;stroke-width:1.5;" width="286" x="49" y="53.5"/><ellipse cx="138.75" cy="69.5" fill="#ADD1B2" rx="11" ry="11" style="stroke:#2688D4;stroke-width:1.0;"/><path d="M141.2188,75.375 Q140.6406,75.6875 140,75.8438 Q139.3594,76 138.6563,76 Q136.1563,76 134.8281,74.3281 Q133.5156,72.6563 133.5156,69.5 Q133.5156,66.3438 134.8281,64.6719 Q136.1563,63 138.6563,63 Q139.3594,63 140,63.1563 Q140.6563,63.3125 141.2188,63.625 L141.2188,66.4219 Q140.5938,65.8594 140,65.5938 Q139.4063,65.3125 138.7813,65.3125 Q137.4375,65.3125 136.75,66.375 Q136.0625,67.4375 136.0625,69.5 Q136.0625,71.5781 136.75,72.6406 Q137.4375,73.6875 138.7813,73.6875 Q139.4063,73.6875 140,73.4219 Q140.5938,73.1563 141.2188,72.5781 L141.2188,75.375 Z " fill="#000000"/><text fill="#000000" font-family="sans-serif" font-size="12" lengthAdjust="spacing" textLength="98" x="159.25" y="73.6543">RecipeContainer</text><line style="stroke:#2688D4;stroke-width:1.5;" x1="50" x2="334" y1="85.5" y2="85.5"/><line style="stroke:#2688D4;stroke-width:1.5;" x1="50" x2="334" y1="93.5" y2="93.5"/><ellipse cx="60" cy="104.5" fill="#84BE84" rx="3" ry="3" style="stroke:#038048;stroke-width:1.0;"/><text fill="#000000" font-family="sans-serif" font-size="11" lengthAdjust="spacing" textLength="144" x="69" y="107.7104">EditRecipe(Recipe recipe)</text><ellipse cx="60" cy="117.3047" fill="#84BE84" rx="3" ry="3" style="stroke:#038048;stroke-width:1.0;"/><text fill="#000000" font-family="sans-serif" font-size="11" lengthAdjust="spacing" textLength="260" x="69" y="120.5151">FindAllByCookingBookId(string cookingBookId)</text><ellipse cx="60" cy="130.1094" fill="#84BE84" rx="3" ry="3" style="stroke:#038048;stroke-width:1.0;"/><text fill="#000000" font-family="sans-serif" font-size="11" lengthAdjust="spacing" textLength="167" x="69" y="133.3198">FindAllByUserId(string userId)</text><ellipse cx="60" cy="142.9141" fill="#84BE84" rx="3" ry="3" style="stroke:#038048;stroke-width:1.0;"/><text fill="#000000" font-family="sans-serif" font-size="11" lengthAdjust="spacing" textLength="137" x="69" y="146.1245">FindById(string recipeId)</text><ellipse cx="60" cy="155.7188" fill="#84BE84" rx="3" ry="3" style="stroke:#038048;stroke-width:1.0;"/><text fill="#000000" font-family="sans-serif" font-size="11" lengthAdjust="spacing" textLength="149" x="69" y="158.9292">AddRecipe(recipe: Recipe)</text><ellipse cx="60" cy="168.5234" fill="#84BE84" rx="3" ry="3" style="stroke:#038048;stroke-width:1.0;"/><text fill="#000000" font-family="sans-serif" font-size="11" lengthAdjust="spacing" textLength="174" x="69" y="171.7339">RemoveRecipe(recipe: Recipe)</text><!--MD5=[20418cb98520644da1e87dc0310aa74a]
class Recipe--><rect codeLine="22" fill="#FFFFFF" filter="url(#f1pioxkq0yk499)" height="150.4375" id="Recipe" style="stroke:#2688D4;stroke-width:1.5;" width="351" x="370.5" y="41"/><ellipse cx="521.75" cy="57" fill="#ADD1B2" rx="11" ry="11" style="stroke:#2688D4;stroke-width:1.0;"/><path d="M524.2188,62.875 Q523.6406,63.1875 523,63.3438 Q522.3594,63.5 521.6563,63.5 Q519.1563,63.5 517.8281,61.8281 Q516.5156,60.1563 516.5156,57 Q516.5156,53.8438 517.8281,52.1719 Q519.1563,50.5 521.6563,50.5 Q522.3594,50.5 523,50.6563 Q523.6563,50.8125 524.2188,51.125 L524.2188,53.9219 Q523.5938,53.3594 523,53.0938 Q522.4063,52.8125 521.7813,52.8125 Q520.4375,52.8125 519.75,53.875 Q519.0625,54.9375 519.0625,57 Q519.0625,59.0781 519.75,60.1406 Q520.4375,61.1875 521.7813,61.1875 Q522.4063,61.1875 523,60.9219 Q523.5938,60.6563 524.2188,60.0781 L524.2188,62.875 Z " fill="#000000"/><text fill="#000000" font-family="sans-serif" font-size="12" lengthAdjust="spacing" textLength="40" x="542.25" y="61.1543">Recipe</text><line style="stroke:#2688D4;stroke-width:1.5;" x1="371.5" x2="720.5" y1="73" y2="73"/><ellipse cx="381.5" cy="84" rx="3" ry="3" style="stroke:#038048;stroke-width:1.0;fill:none;"/><text fill="#000000" font-family="sans-serif" font-size="11" lengthAdjust="spacing" textLength="50" x="390.5" y="87.2104">Id: string</text><ellipse cx="381.5" cy="96.8047" rx="3" ry="3" style="stroke:#038048;stroke-width:1.0;fill:none;"/><text fill="#000000" font-family="sans-serif" font-size="11" lengthAdjust="spacing" textLength="76" x="390.5" y="100.0151">UserId: string</text><ellipse cx="381.5" cy="109.6094" rx="3" ry="3" style="stroke:#038048;stroke-width:1.0;fill:none;"/><text fill="#000000" font-family="sans-serif" font-size="11" lengthAdjust="spacing" textLength="64" x="390.5" y="112.8198">Title: string</text><ellipse cx="381.5" cy="122.4141" rx="3" ry="3" style="stroke:#038048;stroke-width:1.0;fill:none;"/><text fill="#000000" font-family="sans-serif" font-size="11" lengthAdjust="spacing" textLength="132" x="390.5" y="125.6245">FoodImage: FoodImage</text><ellipse cx="381.5" cy="135.2188" rx="3" ry="3" style="stroke:#038048;stroke-width:1.0;fill:none;"/><text fill="#000000" font-family="sans-serif" font-size="11" lengthAdjust="spacing" textLength="112" x="390.5" y="138.4292">Preparations: string</text><ellipse cx="381.5" cy="148.0234" rx="3" ry="3" style="stroke:#038048;stroke-width:1.0;fill:none;"/><text fill="#000000" font-family="sans-serif" font-size="11" lengthAdjust="spacing" textLength="103" x="390.5" y="151.2339">Ingredients: string</text><line style="stroke:#2688D4;stroke-width:1.5;" x1="371.5" x2="720.5" y1="157.8281" y2="157.8281"/><ellipse cx="381.5" cy="168.8281" fill="#84BE84" rx="3" ry="3" style="stroke:#038048;stroke-width:1.0;"/><text fill="#000000" font-family="sans-serif" font-size="11" lengthAdjust="spacing" textLength="325" x="390.5" y="172.0386">Save(IRecipeDal recipeDal, IFoodImageDal foodImageDal)</text><ellipse cx="381.5" cy="181.6328" fill="#84BE84" rx="3" ry="3" style="stroke:#038048;stroke-width:1.0;"/><text fill="#000000" font-family="sans-serif" font-size="11" lengthAdjust="spacing" textLength="289" x="390.5" y="184.8433">Recipe(recipeDto: RecipeDto, imageDto: ImageDto)</text><!--MD5=[b63ea12a7f46f2b9b6a8627e742001bc]
class RecipeDto--><rect codeLine="36" fill="#FFFFFF" filter="url(#f1pioxkq0yk499)" height="112.0234" id="RecipeDto" style="stroke:#2688D4;stroke-width:1.5;" width="138" x="423" y="266"/><ellipse cx="458.25" cy="282" fill="#FFFFFF" rx="11" ry="11" style="stroke:#2688D4;stroke-width:1.0;"/><path d="M457.4844,282.7031 Q455.625,282 454.9688,281.2188 Q454.3281,280.4375 454.3281,279.125 Q454.3281,277.4375 455.4063,276.4688 Q456.4844,275.5 458.3594,275.5 Q459.2188,275.5 460.0625,275.7188 Q460.9219,275.9219 461.7656,276.3125 L461.7656,278.7656 Q460.9844,278.2188 460.1563,277.9375 Q459.3438,277.6406 458.5469,277.6406 Q457.6719,277.6406 457.1875,278 Q456.7188,278.3594 456.7188,279.0156 Q456.7188,279.5313 457.0625,279.875 Q457.4063,280.2031 458.5,280.6094 L459.5625,281.0156 Q461.0469,281.5625 461.75,282.4844 Q462.4688,283.3906 462.4688,284.7656 Q462.4688,286.6563 461.3594,287.5781 Q460.25,288.5 458,288.5 Q457.0781,288.5 456.1563,288.2656 Q455.2344,288.0313 454.375,287.5781 L454.375,285.0156 Q455.3438,285.7031 456.2656,286.0469 Q457.1875,286.375 458.0781,286.375 Q458.9844,286.375 459.4844,285.9688 Q459.9844,285.5469 459.9844,284.8125 Q459.9844,284.25 459.6406,283.8281 Q459.3125,283.4063 458.6875,283.1719 L457.4844,282.7031 Z " fill="#000000"/><text fill="#000000" font-family="sans-serif" font-size="12" lengthAdjust="spacing" textLength="61" x="476.75" y="286.1543">RecipeDto</text><line style="stroke:#2688D4;stroke-width:1.5;" x1="424" x2="560" y1="298" y2="298"/><ellipse cx="434" cy="309" rx="3" ry="3" style="stroke:#038048;stroke-width:1.0;fill:none;"/><text fill="#000000" font-family="sans-serif" font-size="11" lengthAdjust="spacing" textLength="50" x="443" y="312.2104">Id: string</text><ellipse cx="434" cy="321.8047" rx="3" ry="3" style="stroke:#038048;stroke-width:1.0;fill:none;"/><text fill="#000000" font-family="sans-serif" font-size="11" lengthAdjust="spacing" textLength="87" x="443" y="325.0151">OwnerId: string</text><ellipse cx="434" cy="334.6094" rx="3" ry="3" style="stroke:#038048;stroke-width:1.0;fill:none;"/><text fill="#000000" font-family="sans-serif" font-size="11" lengthAdjust="spacing" textLength="64" x="443" y="337.8198">Title: string</text><ellipse cx="434" cy="347.4141" rx="3" ry="3" style="stroke:#038048;stroke-width:1.0;fill:none;"/><text fill="#000000" font-family="sans-serif" font-size="11" lengthAdjust="spacing" textLength="112" x="443" y="350.6245">Preparations: string</text><ellipse cx="434" cy="360.2188" rx="3" ry="3" style="stroke:#038048;stroke-width:1.0;fill:none;"/><text fill="#000000" font-family="sans-serif" font-size="11" lengthAdjust="spacing" textLength="103" x="443" y="363.4292">Ingredients: string</text><line style="stroke:#2688D4;stroke-width:1.5;" x1="424" x2="560" y1="370.0234" y2="370.0234"/><!--MD5=[d32d2927f30cd075f415c4e185226248]
class IRecipeDal--><rect codeLine="44" fill="#FFFFFF" filter="url(#f1pioxkq0yk499)" height="112.0234" id="IRecipeDal" style="stroke:#2688D4;stroke-width:1.5;" width="356" x="32" y="266"/><ellipse cx="174.25" cy="282" fill="#B4A7E5" rx="11" ry="11" style="stroke:#2688D4;stroke-width:1.0;"/><path d="M170.6719,277.7813 L170.6719,275.5 L178.0625,275.5 L178.0625,277.7813 L175.5938,277.7813 L175.5938,286.2344 L178.0625,286.2344 L178.0625,288.5 L170.6719,288.5 L170.6719,286.2344 L173.1406,286.2344 L173.1406,277.7813 L170.6719,277.7813 Z " fill="#000000"/><text fill="#000000" font-family="sans-serif" font-size="12" font-style="italic" lengthAdjust="spacing" textLength="63" x="194.75" y="286.1543">IRecipeDal</text><line style="stroke:#2688D4;stroke-width:1.5;" x1="33" x2="387" y1="298" y2="298"/><line style="stroke:#2688D4;stroke-width:1.5;" x1="33" x2="387" y1="306" y2="306"/><ellipse cx="43" cy="317" fill="#84BE84" rx="3" ry="3" style="stroke:#038048;stroke-width:1.0;"/><text fill="#000000" font-family="sans-serif" font-size="11" lengthAdjust="spacing" textLength="155" x="52" y="320.2104">Save(recipeDto: RecipeDto)</text><ellipse cx="43" cy="329.8047" fill="#84BE84" rx="3" ry="3" style="stroke:#038048;stroke-width:1.0;"/><text fill="#000000" font-family="sans-serif" font-size="11" lengthAdjust="spacing" textLength="244" x="52" y="333.0151">FindAllByUserId(userId: string): RecipeDto[]</text><ellipse cx="43" cy="342.6094" fill="#84BE84" rx="3" ry="3" style="stroke:#038048;stroke-width:1.0;"/><text fill="#000000" font-family="sans-serif" font-size="11" lengthAdjust="spacing" textLength="206" x="52" y="345.8198">FindById(recipeId: string): RecipeDto</text><ellipse cx="43" cy="355.4141" fill="#84BE84" rx="3" ry="3" style="stroke:#038048;stroke-width:1.0;"/><text fill="#000000" font-family="sans-serif" font-size="11" lengthAdjust="spacing" textLength="115" x="52" y="358.6245">GetAll(): RecipeDto[]</text><ellipse cx="43" cy="368.2188" fill="#84BE84" rx="3" ry="3" style="stroke:#038048;stroke-width:1.0;"/><text fill="#000000" font-family="sans-serif" font-size="11" lengthAdjust="spacing" textLength="330" x="52" y="371.4292">GetAllByCookingBookId(string cookingBookId): RecipeDto[]</text><!--MD5=[880b32c8aa3db88bfaec1dd3f7b57aab]
class RecipeDal--><rect codeLine="54" fill="#FFFFFF" filter="url(#f1pioxkq0yk499)" height="112.0234" id="RecipeDal" style="stroke:#2688D4;stroke-width:1.5;" width="356" x="173" y="453"/><ellipse cx="317.25" cy="469" fill="#ADD1B2" rx="11" ry="11" style="stroke:#2688D4;stroke-width:1.0;"/><path d="M319.7188,474.875 Q319.1406,475.1875 318.5,475.3438 Q317.8594,475.5 317.1563,475.5 Q314.6563,475.5 313.3281,473.8281 Q312.0156,472.1563 312.0156,469 Q312.0156,465.8438 313.3281,464.1719 Q314.6563,462.5 317.1563,462.5 Q317.8594,462.5 318.5,462.6563 Q319.1563,462.8125 319.7188,463.125 L319.7188,465.9219 Q319.0938,465.3594 318.5,465.0938 Q317.9063,464.8125 317.2813,464.8125 Q315.9375,464.8125 315.25,465.875 Q314.5625,466.9375 314.5625,469 Q314.5625,471.0781 315.25,472.1406 Q315.9375,473.1875 317.2813,473.1875 Q317.9063,473.1875 318.5,472.9219 Q319.0938,472.6563 319.7188,472.0781 L319.7188,474.875 Z " fill="#000000"/><text fill="#000000" font-family="sans-serif" font-size="12" lengthAdjust="spacing" textLength="59" x="337.75" y="473.1543">RecipeDal</text><line style="stroke:#2688D4;stroke-width:1.5;" x1="174" x2="528" y1="485" y2="485"/><line style="stroke:#2688D4;stroke-width:1.5;" x1="174" x2="528" y1="493" y2="493"/><ellipse cx="184" cy="504" fill="#84BE84" rx="3" ry="3" style="stroke:#038048;stroke-width:1.0;"/><text fill="#000000" font-family="sans-serif" font-size="11" lengthAdjust="spacing" textLength="155" x="193" y="507.2104">Save(recipeDto: RecipeDto)</text><ellipse cx="184" cy="516.8047" fill="#84BE84" rx="3" ry="3" style="stroke:#038048;stroke-width:1.0;"/><text fill="#000000" font-family="sans-serif" font-size="11" lengthAdjust="spacing" textLength="244" x="193" y="520.0151">FindAllByUserId(userId: string): RecipeDto[]</text><ellipse cx="184" cy="529.6094" fill="#84BE84" rx="3" ry="3" style="stroke:#038048;stroke-width:1.0;"/><text fill="#000000" font-family="sans-serif" font-size="11" lengthAdjust="spacing" textLength="206" x="193" y="532.8198">FindById(recipeId: string): RecipeDto</text><ellipse cx="184" cy="542.4141" fill="#84BE84" rx="3" ry="3" style="stroke:#038048;stroke-width:1.0;"/><text fill="#000000" font-family="sans-serif" font-size="11" lengthAdjust="spacing" textLength="115" x="193" y="545.6245">GetAll(): RecipeDto[]</text><ellipse cx="184" cy="555.2188" fill="#84BE84" rx="3" ry="3" style="stroke:#038048;stroke-width:1.0;"/><text fill="#000000" font-family="sans-serif" font-size="11" lengthAdjust="spacing" textLength="330" x="193" y="558.4292">GetAllByCookingBookId(string cookingBookId): RecipeDto[]</text><!--MD5=[e5da9600ad2bbd4e8285f4ef03b49d88]
reverse link IRecipeDal to RecipeDal--><path codeLine="64" d="M280.5,398.11 C280.5,398.11 280.5,452.93 280.5,452.93 " fill="none" id="IRecipeDal-backto-RecipeDal" style="stroke:#A80036;stroke-width:1.0;stroke-dasharray:7.0,7.0;"/><polygon fill="none" points="273.5,398.11,280.5,378.11,287.5,398.11,273.5,398.11" style="stroke:#A80036;stroke-width:1.0;"/><!--MD5=[9059c252cb0ef76925e1287355a7c02a]
link RecipeContainer to Recipe--><path codeLine="65" d="M335.22,116 C335.22,116 365.42,116 365.42,116 " fill="none" id="RecipeContainer-to-Recipe" style="stroke:#A80036;stroke-width:1.0;"/><polygon fill="#A80036" points="370.42,116,361.42,112,365.42,116,361.42,120,370.42,116" style="stroke:#A80036;stroke-width:1.0;"/><text fill="#000000" font-family="sans-serif" font-size="13" lengthAdjust="spacing" textLength="7" x="355.3054" y="112.7201">*</text><!--MD5=[673283271bda6f715db073286596007d]
link Recipe to RecipeDto--><path codeLine="67" d="M515,191.25 C515,191.25 515,261 515,261 " fill="none" id="Recipe-to-RecipeDto" style="stroke:#A80036;stroke-width:1.0;stroke-dasharray:7.0,7.0;"/><polygon fill="#A80036" points="515,266,519,257,515,261,511,257,515,266" style="stroke:#A80036;stroke-width:1.0;"/><text fill="#000000" font-family="sans-serif" font-size="13" lengthAdjust="spacing" textLength="30" x="484" y="222.1869">uses</text><!--MD5=[c9b53d3a366c3eb770e8ef9229d1a3cf]
reverse link RecipeDto to RecipeContainer--><path codeLine="68" d="M469,260.76 C469,260.76 469,229 469,229 C469,229 239.67,229 239.67,229 C239.67,229 239.67,204.79 239.67,178.78 " fill="none" id="RecipeDto-backto-RecipeContainer" style="stroke:#A80036;stroke-width:1.0;stroke-dasharray:7.0,7.0;"/><polygon fill="#A80036" points="469,265.76,473,256.76,469,260.76,465,256.76,469,265.76" style="stroke:#A80036;stroke-width:1.0;"/><text fill="#000000" font-family="sans-serif" font-size="13" lengthAdjust="spacing" textLength="30" x="314.1" y="225.0669">uses</text><!--MD5=[867a53314041eaa69e53fef16489fc17]
reverse link RecipeDto to RecipeDal--><path codeLine="69" d="M476,383.11 C476,383.11 476,452.93 476,452.93 " fill="none" id="RecipeDto-backto-RecipeDal" style="stroke:#A80036;stroke-width:1.0;stroke-dasharray:7.0,7.0;"/><polygon fill="#A80036" points="476,378.11,472,387.11,476,383.11,480,387.11,476,378.11" style="stroke:#A80036;stroke-width:1.0;"/><text fill="#000000" font-family="sans-serif" font-size="13" lengthAdjust="spacing" textLength="30" x="445" y="414.0869">uses</text><!--MD5=[49c360a4ef998b6d0eb5b2cdd9e055b5]
link Recipe to IRecipeDal--><path codeLine="71" d="M379.25,191.25 C379.25,191.25 379.25,261 379.25,261 " fill="none" id="Recipe-to-IRecipeDal" style="stroke:#A80036;stroke-width:1.0;"/><polygon fill="#A80036" points="379.25,266,383.25,257,379.25,261,375.25,257,379.25,266" style="stroke:#A80036;stroke-width:1.0;"/><!--MD5=[1ea10b0f80d6d84e211d808eb2f6305c]
link RecipeContainer to IRecipeDal--><path codeLine="72" d="M144.33,178.65 C144.33,178.65 144.33,260.95 144.33,260.95 " fill="none" id="RecipeContainer-to-IRecipeDal" style="stroke:#A80036;stroke-width:1.0;"/><polygon fill="#A80036" points="144.33,265.95,148.33,256.95,144.33,260.95,140.33,256.95,144.33,265.95" style="stroke:#A80036;stroke-width:1.0;"/><!--MD5=[5f426844a5e85ecb8010686c2473f299]
@startuml
skinparam linetype ortho
skinparam shadowing true
skinparam handwritten false

!define struct(x) entity x << (S, white) >>

skinparam class {
    BackgroundColor white
    BorderColor #2688d4
}

package LogicLayer {
    class RecipeContainer {
        + EditRecipe(Recipe recipe)
        + FindAllByCookingBookId(string cookingBookId)
        + FindAllByUserId(string userId)
        + FindById(string recipeId)
        + AddRecipe(recipe: Recipe)
        + RemoveRecipe(recipe: Recipe)
    }
    
    class Recipe {
        + Id: string
        + UserId: string
        + Title: string
        + FoodImage: FoodImage
        + Preparations: string
        + Ingredients: string
        
        + Save(IRecipeDal recipeDal, IFoodImageDal foodImageDal)
        + Recipe(recipeDto: RecipeDto, imageDto: ImageDto)
    }
}

package AbstractionLayer {
     struct(RecipeDto){
        + Id: string
        + OwnerId: string
        + Title: string
        + Preparations: string
        + Ingredients: string
    }
    
    interface IRecipeDal{
        + Save(recipeDto: RecipeDto)
        + FindAllByUserId(userId: string): RecipeDto[]
        + FindById(recipeId: string): RecipeDto
        + GetAll(): RecipeDto[]
        + GetAllByCookingBookId(string cookingBookId): RecipeDto[]
    }
}

package DataLayer {
    class RecipeDal {
        + Save(recipeDto: RecipeDto)
        + FindAllByUserId(userId: string): RecipeDto[]
        + FindById(recipeId: string): RecipeDto
        + GetAll(): RecipeDto[]
        + GetAllByCookingBookId(string cookingBookId): RecipeDto[]
    }
}


RecipeDal .u.|> IRecipeDal
RecipeContainer -r-> "*" Recipe

Recipe .r.> RecipeDto : uses
RecipeContainer .u.> RecipeDto : uses
RecipeDal .u.> RecipeDto : uses

Recipe -d-> IRecipeDal
RecipeContainer -d-> IRecipeDal

@enduml

@startuml
skinparam linetype ortho
skinparam shadowing true
skinparam handwritten false


skinparam class {
    BackgroundColor white
    BorderColor #2688d4
}

package LogicLayer {
    class RecipeContainer {
        + EditRecipe(Recipe recipe)
        + FindAllByCookingBookId(string cookingBookId)
        + FindAllByUserId(string userId)
        + FindById(string recipeId)
        + AddRecipe(recipe: Recipe)
        + RemoveRecipe(recipe: Recipe)
    }
    
    class Recipe {
        + Id: string
        + UserId: string
        + Title: string
        + FoodImage: FoodImage
        + Preparations: string
        + Ingredients: string
        
        + Save(IRecipeDal recipeDal, IFoodImageDal foodImageDal)
        + Recipe(recipeDto: RecipeDto, imageDto: ImageDto)
    }
}

package AbstractionLayer {
     entity RecipeDto << (S, white) >>{
        + Id: string
        + OwnerId: string
        + Title: string
        + Preparations: string
        + Ingredients: string
    }
    
    interface IRecipeDal{
        + Save(recipeDto: RecipeDto)
        + FindAllByUserId(userId: string): RecipeDto[]
        + FindById(recipeId: string): RecipeDto
        + GetAll(): RecipeDto[]
        + GetAllByCookingBookId(string cookingBookId): RecipeDto[]
    }
}

package DataLayer {
    class RecipeDal {
        + Save(recipeDto: RecipeDto)
        + FindAllByUserId(userId: string): RecipeDto[]
        + FindById(recipeId: string): RecipeDto
        + GetAll(): RecipeDto[]
        + GetAllByCookingBookId(string cookingBookId): RecipeDto[]
    }
}


RecipeDal .u.|> IRecipeDal
RecipeContainer -r-> "*" Recipe

Recipe .r.> RecipeDto : uses
RecipeContainer .u.> RecipeDto : uses
RecipeDal .u.> RecipeDto : uses

Recipe -d-> IRecipeDal
RecipeContainer -d-> IRecipeDal

@enduml

PlantUML version 1.2021.11(Sat Oct 02 15:26:11 CEST 2021)
(GPL source distribution)
Java Runtime: OpenJDK Runtime Environment
JVM: Dynamic Code Evolution 64-Bit Server VM
Default Encoding: UTF-8
Language: en
Country: US
--></g></svg>