<?xml version="1.0" encoding="UTF-8" standalone="no"?><svg xmlns="http://www.w3.org/2000/svg" xmlns:xlink="http://www.w3.org/1999/xlink" contentScriptType="application/ecmascript" contentStyleType="text/css" height="763px" preserveAspectRatio="none" style="width:1111px;height:763px;background:#FFFFFF;" version="1.1" viewBox="0 0 1111 763" width="1111px" zoomAndPan="magnify"><defs><filter height="300%" id="f1t4to55ta7js0" width="300%" x="-1" y="-1"><feGaussianBlur result="blurOut" stdDeviation="2.0"/><feColorMatrix in="blurOut" result="blurOut2" type="matrix" values="0 0 0 0 0 0 0 0 0 0 0 0 0 0 0 0 0 0 .4 0"/><feOffset dx="4.0" dy="4.0" in="blurOut2" result="blurOut3"/><feBlend in="SourceGraphic" in2="blurOut3" mode="normal"/></filter></defs><g><!--MD5=[3fd616f346a44cd59a91eb10b19e157c]
class User--><rect codeLine="9" fill="#FEFECE" filter="url(#f1t4to55ta7js0)" height="163.2422" id="User" style="stroke:#000000;stroke-width:1.5;" width="453" x="328.5" y="179"/><ellipse cx="537.25" cy="195" fill="#ADD1B2" rx="11" ry="11" style="stroke:#000000;stroke-width:1.0;"/><path d="M539.7188,200.875 Q539.1406,201.1875 538.5,201.3438 Q537.8594,201.5 537.1563,201.5 Q534.6563,201.5 533.3281,199.8281 Q532.0156,198.1563 532.0156,195 Q532.0156,191.8438 533.3281,190.1719 Q534.6563,188.5 537.1563,188.5 Q537.8594,188.5 538.5,188.6563 Q539.1563,188.8125 539.7188,189.125 L539.7188,191.9219 Q539.0938,191.3594 538.5,191.0938 Q537.9063,190.8125 537.2813,190.8125 Q535.9375,190.8125 535.25,191.875 Q534.5625,192.9375 534.5625,195 Q534.5625,197.0781 535.25,198.1406 Q535.9375,199.1875 537.2813,199.1875 Q537.9063,199.1875 538.5,198.9219 Q539.0938,198.6563 539.7188,198.0781 L539.7188,200.875 Z " fill="#000000"/><text fill="#000000" font-family="sans-serif" font-size="12" lengthAdjust="spacing" textLength="27" x="557.75" y="199.1543">User</text><line style="stroke:#000000;stroke-width:1.5;" x1="329.5" x2="780.5" y1="211" y2="211"/><ellipse cx="339.5" cy="222" rx="3" ry="3" style="stroke:#038048;stroke-width:1.0;fill:none;"/><text fill="#000000" font-family="sans-serif" font-size="11" lengthAdjust="spacing" textLength="50" x="348.5" y="225.2104">Id: string</text><ellipse cx="339.5" cy="234.8047" rx="3" ry="3" style="stroke:#038048;stroke-width:1.0;fill:none;"/><text fill="#000000" font-family="sans-serif" font-size="11" lengthAdjust="spacing" textLength="98" x="348.5" y="238.0151">Username: string</text><ellipse cx="339.5" cy="247.6094" rx="3" ry="3" style="stroke:#038048;stroke-width:1.0;fill:none;"/><text fill="#000000" font-family="sans-serif" font-size="11" lengthAdjust="spacing" textLength="94" x="348.5" y="250.8198">Password: string</text><ellipse cx="339.5" cy="260.4141" rx="3" ry="3" style="stroke:#038048;stroke-width:1.0;fill:none;"/><text fill="#000000" font-family="sans-serif" font-size="11" lengthAdjust="spacing" textLength="98" x="348.5" y="263.6245">Recipes: Recipe[]</text><ellipse cx="339.5" cy="273.2188" rx="3" ry="3" style="stroke:#038048;stroke-width:1.0;fill:none;"/><text fill="#000000" font-family="sans-serif" font-size="11" lengthAdjust="spacing" textLength="168" x="348.5" y="276.4292">CookingBooks: CookingBook[]</text><line style="stroke:#000000;stroke-width:1.5;" x1="329.5" x2="780.5" y1="283.0234" y2="283.0234"/><ellipse cx="339.5" cy="294.0234" fill="#84BE84" rx="3" ry="3" style="stroke:#038048;stroke-width:1.0;"/><text fill="#000000" font-family="sans-serif" font-size="11" lengthAdjust="spacing" textLength="149" x="348.5" y="297.2339">AddRecipe(recipe: Recipe)</text><ellipse cx="339.5" cy="306.8281" fill="#84BE84" rx="3" ry="3" style="stroke:#038048;stroke-width:1.0;"/><text fill="#000000" font-family="sans-serif" font-size="11" lengthAdjust="spacing" textLength="131" x="348.5" y="310.0386">User(userDto: UserDto)</text><ellipse cx="339.5" cy="319.6328" fill="#84BE84" rx="3" ry="3" style="stroke:#038048;stroke-width:1.0;"/><text fill="#000000" font-family="sans-serif" font-size="11" lengthAdjust="spacing" textLength="427" x="348.5" y="322.8433">Save(IUserDal userDal, IRecipeDal recipeDal, IFoodImageDal foodImageDal)</text><ellipse cx="339.5" cy="332.4375" fill="#84BE84" rx="3" ry="3" style="stroke:#038048;stroke-width:1.0;"/><text fill="#000000" font-family="sans-serif" font-size="11" lengthAdjust="spacing" textLength="131" x="348.5" y="335.6479">User(username: string)</text><!--MD5=[c913ee1f9e7d97ed5028e395c434d958]
class UserContainer--><rect codeLine="22" fill="#FEFECE" filter="url(#f1t4to55ta7js0)" height="112.0234" id="UserContainer" style="stroke:#000000;stroke-width:1.5;" width="227" x="441.5" y="7"/><ellipse cx="508.25" cy="23" fill="#ADD1B2" rx="11" ry="11" style="stroke:#000000;stroke-width:1.0;"/><path d="M510.7188,28.875 Q510.1406,29.1875 509.5,29.3438 Q508.8594,29.5 508.1563,29.5 Q505.6563,29.5 504.3281,27.8281 Q503.0156,26.1563 503.0156,23 Q503.0156,19.8438 504.3281,18.1719 Q505.6563,16.5 508.1563,16.5 Q508.8594,16.5 509.5,16.6563 Q510.1563,16.8125 510.7188,17.125 L510.7188,19.9219 Q510.0938,19.3594 509.5,19.0938 Q508.9063,18.8125 508.2813,18.8125 Q506.9375,18.8125 506.25,19.875 Q505.5625,20.9375 505.5625,23 Q505.5625,25.0781 506.25,26.1406 Q506.9375,27.1875 508.2813,27.1875 Q508.9063,27.1875 509.5,26.9219 Q510.0938,26.6563 510.7188,26.0781 L510.7188,28.875 Z " fill="#000000"/><text fill="#000000" font-family="sans-serif" font-size="12" lengthAdjust="spacing" textLength="85" x="528.75" y="27.1543">UserContainer</text><line style="stroke:#000000;stroke-width:1.5;" x1="442.5" x2="667.5" y1="39" y2="39"/><line style="stroke:#000000;stroke-width:1.5;" x1="442.5" x2="667.5" y1="47" y2="47"/><ellipse cx="452.5" cy="58" fill="#84BE84" rx="3" ry="3" style="stroke:#038048;stroke-width:1.0;"/><text fill="#000000" font-family="sans-serif" font-size="11" lengthAdjust="spacing" textLength="115" x="461.5" y="61.2104">AddUser(user: User)</text><ellipse cx="452.5" cy="70.8047" fill="#84BE84" rx="3" ry="3" style="stroke:#038048;stroke-width:1.0;"/><text fill="#000000" font-family="sans-serif" font-size="11" lengthAdjust="spacing" textLength="140" x="461.5" y="74.0151">RemoveUser(user: User)</text><ellipse cx="452.5" cy="83.6094" fill="#84BE84" rx="3" ry="3" style="stroke:#038048;stroke-width:1.0;"/><text fill="#000000" font-family="sans-serif" font-size="11" lengthAdjust="spacing" textLength="201" x="461.5" y="86.8198">FindByUsername(username: string)</text><ellipse cx="452.5" cy="96.4141" fill="#84BE84" rx="3" ry="3" style="stroke:#038048;stroke-width:1.0;"/><text fill="#000000" font-family="sans-serif" font-size="11" lengthAdjust="spacing" textLength="131" x="461.5" y="99.6245">FindById(userId: string)</text><ellipse cx="452.5" cy="109.2188" fill="#84BE84" rx="3" ry="3" style="stroke:#038048;stroke-width:1.0;"/><text fill="#000000" font-family="sans-serif" font-size="11" lengthAdjust="spacing" textLength="84" x="461.5" y="112.4292">GetAll(): User[]</text><!--MD5=[20418cb98520644da1e87dc0310aa74a]
class Recipe--><rect codeLine="30" fill="#FEFECE" filter="url(#f1t4to55ta7js0)" height="150.4375" id="Recipe" style="stroke:#000000;stroke-width:1.5;" width="351" x="203.5" y="402"/><ellipse cx="354.75" cy="418" fill="#ADD1B2" rx="11" ry="11" style="stroke:#000000;stroke-width:1.0;"/><path d="M357.2188,423.875 Q356.6406,424.1875 356,424.3438 Q355.3594,424.5 354.6563,424.5 Q352.1563,424.5 350.8281,422.8281 Q349.5156,421.1563 349.5156,418 Q349.5156,414.8438 350.8281,413.1719 Q352.1563,411.5 354.6563,411.5 Q355.3594,411.5 356,411.6563 Q356.6563,411.8125 357.2188,412.125 L357.2188,414.9219 Q356.5938,414.3594 356,414.0938 Q355.4063,413.8125 354.7813,413.8125 Q353.4375,413.8125 352.75,414.875 Q352.0625,415.9375 352.0625,418 Q352.0625,420.0781 352.75,421.1406 Q353.4375,422.1875 354.7813,422.1875 Q355.4063,422.1875 356,421.9219 Q356.5938,421.6563 357.2188,421.0781 L357.2188,423.875 Z " fill="#000000"/><text fill="#000000" font-family="sans-serif" font-size="12" lengthAdjust="spacing" textLength="40" x="375.25" y="422.1543">Recipe</text><line style="stroke:#000000;stroke-width:1.5;" x1="204.5" x2="553.5" y1="434" y2="434"/><ellipse cx="214.5" cy="445" rx="3" ry="3" style="stroke:#038048;stroke-width:1.0;fill:none;"/><text fill="#000000" font-family="sans-serif" font-size="11" lengthAdjust="spacing" textLength="50" x="223.5" y="448.2104">Id: string</text><ellipse cx="214.5" cy="457.8047" rx="3" ry="3" style="stroke:#038048;stroke-width:1.0;fill:none;"/><text fill="#000000" font-family="sans-serif" font-size="11" lengthAdjust="spacing" textLength="76" x="223.5" y="461.0151">UserId: string</text><ellipse cx="214.5" cy="470.6094" rx="3" ry="3" style="stroke:#038048;stroke-width:1.0;fill:none;"/><text fill="#000000" font-family="sans-serif" font-size="11" lengthAdjust="spacing" textLength="64" x="223.5" y="473.8198">Title: string</text><ellipse cx="214.5" cy="483.4141" rx="3" ry="3" style="stroke:#038048;stroke-width:1.0;fill:none;"/><text fill="#000000" font-family="sans-serif" font-size="11" lengthAdjust="spacing" textLength="132" x="223.5" y="486.6245">FoodImage: FoodImage</text><ellipse cx="214.5" cy="496.2188" rx="3" ry="3" style="stroke:#038048;stroke-width:1.0;fill:none;"/><text fill="#000000" font-family="sans-serif" font-size="11" lengthAdjust="spacing" textLength="112" x="223.5" y="499.4292">Preparations: string</text><ellipse cx="214.5" cy="509.0234" rx="3" ry="3" style="stroke:#038048;stroke-width:1.0;fill:none;"/><text fill="#000000" font-family="sans-serif" font-size="11" lengthAdjust="spacing" textLength="103" x="223.5" y="512.2339">Ingredients: string</text><line style="stroke:#000000;stroke-width:1.5;" x1="204.5" x2="553.5" y1="518.8281" y2="518.8281"/><ellipse cx="214.5" cy="529.8281" fill="#84BE84" rx="3" ry="3" style="stroke:#038048;stroke-width:1.0;"/><text fill="#000000" font-family="sans-serif" font-size="11" lengthAdjust="spacing" textLength="325" x="223.5" y="533.0386">Save(IRecipeDal recipeDal, IFoodImageDal foodImageDal)</text><ellipse cx="214.5" cy="542.6328" fill="#84BE84" rx="3" ry="3" style="stroke:#038048;stroke-width:1.0;"/><text fill="#000000" font-family="sans-serif" font-size="11" lengthAdjust="spacing" textLength="289" x="223.5" y="545.8433">Recipe(recipeDto: RecipeDto, imageDto: ImageDto)</text><!--MD5=[e84758e3c63f7940b5bba305527ac989]
class RecipeContainer--><rect codeLine="42" fill="#FEFECE" filter="url(#f1t4to55ta7js0)" height="124.8281" id="RecipeContainer" style="stroke:#000000;stroke-width:1.5;" width="286" x="7" y="198"/><ellipse cx="96.75" cy="214" fill="#ADD1B2" rx="11" ry="11" style="stroke:#000000;stroke-width:1.0;"/><path d="M99.2188,219.875 Q98.6406,220.1875 98,220.3438 Q97.3594,220.5 96.6563,220.5 Q94.1563,220.5 92.8281,218.8281 Q91.5156,217.1563 91.5156,214 Q91.5156,210.8438 92.8281,209.1719 Q94.1563,207.5 96.6563,207.5 Q97.3594,207.5 98,207.6563 Q98.6563,207.8125 99.2188,208.125 L99.2188,210.9219 Q98.5938,210.3594 98,210.0938 Q97.4063,209.8125 96.7813,209.8125 Q95.4375,209.8125 94.75,210.875 Q94.0625,211.9375 94.0625,214 Q94.0625,216.0781 94.75,217.1406 Q95.4375,218.1875 96.7813,218.1875 Q97.4063,218.1875 98,217.9219 Q98.5938,217.6563 99.2188,217.0781 L99.2188,219.875 Z " fill="#000000"/><text fill="#000000" font-family="sans-serif" font-size="12" lengthAdjust="spacing" textLength="98" x="117.25" y="218.1543">RecipeContainer</text><line style="stroke:#000000;stroke-width:1.5;" x1="8" x2="292" y1="230" y2="230"/><line style="stroke:#000000;stroke-width:1.5;" x1="8" x2="292" y1="238" y2="238"/><ellipse cx="18" cy="249" fill="#84BE84" rx="3" ry="3" style="stroke:#038048;stroke-width:1.0;"/><text fill="#000000" font-family="sans-serif" font-size="11" lengthAdjust="spacing" textLength="144" x="27" y="252.2104">EditRecipe(Recipe recipe)</text><ellipse cx="18" cy="261.8047" fill="#84BE84" rx="3" ry="3" style="stroke:#038048;stroke-width:1.0;"/><text fill="#000000" font-family="sans-serif" font-size="11" lengthAdjust="spacing" textLength="260" x="27" y="265.0151">FindAllByCookingBookId(string cookingBookId)</text><ellipse cx="18" cy="274.6094" fill="#84BE84" rx="3" ry="3" style="stroke:#038048;stroke-width:1.0;"/><text fill="#000000" font-family="sans-serif" font-size="11" lengthAdjust="spacing" textLength="167" x="27" y="277.8198">FindAllByUserId(string userId)</text><ellipse cx="18" cy="287.4141" fill="#84BE84" rx="3" ry="3" style="stroke:#038048;stroke-width:1.0;"/><text fill="#000000" font-family="sans-serif" font-size="11" lengthAdjust="spacing" textLength="137" x="27" y="290.6245">FindById(string recipeId)</text><ellipse cx="18" cy="300.2188" fill="#84BE84" rx="3" ry="3" style="stroke:#038048;stroke-width:1.0;"/><text fill="#000000" font-family="sans-serif" font-size="11" lengthAdjust="spacing" textLength="149" x="27" y="303.4292">AddRecipe(recipe: Recipe)</text><ellipse cx="18" cy="313.0234" fill="#84BE84" rx="3" ry="3" style="stroke:#038048;stroke-width:1.0;"/><text fill="#000000" font-family="sans-serif" font-size="11" lengthAdjust="spacing" textLength="174" x="27" y="316.2339">RemoveRecipe(recipe: Recipe)</text><!--MD5=[5b08311be8095210946f0291378eb0f5]
class FoodImage--><rect codeLine="51" fill="#FEFECE" filter="url(#f1t4to55ta7js0)" height="137.6328" id="FoodImage" style="stroke:#000000;stroke-width:1.5;" width="444" x="157" y="612"/><ellipse cx="341.25" cy="628" fill="#ADD1B2" rx="11" ry="11" style="stroke:#000000;stroke-width:1.0;"/><path d="M343.7188,633.875 Q343.1406,634.1875 342.5,634.3438 Q341.8594,634.5 341.1563,634.5 Q338.6563,634.5 337.3281,632.8281 Q336.0156,631.1563 336.0156,628 Q336.0156,624.8438 337.3281,623.1719 Q338.6563,621.5 341.1563,621.5 Q341.8594,621.5 342.5,621.6563 Q343.1563,621.8125 343.7188,622.125 L343.7188,624.9219 Q343.0938,624.3594 342.5,624.0938 Q341.9063,623.8125 341.2813,623.8125 Q339.9375,623.8125 339.25,624.875 Q338.5625,625.9375 338.5625,628 Q338.5625,630.0781 339.25,631.1406 Q339.9375,632.1875 341.2813,632.1875 Q341.9063,632.1875 342.5,631.9219 Q343.0938,631.6563 343.7188,631.0781 L343.7188,633.875 Z " fill="#000000"/><text fill="#000000" font-family="sans-serif" font-size="12" lengthAdjust="spacing" textLength="67" x="361.75" y="632.1543">FoodImage</text><line style="stroke:#000000;stroke-width:1.5;" x1="158" x2="600" y1="644" y2="644"/><ellipse cx="168" cy="655" rx="3" ry="3" style="stroke:#038048;stroke-width:1.0;fill:none;"/><text fill="#000000" font-family="sans-serif" font-size="11" lengthAdjust="spacing" textLength="50" x="177" y="658.2104">Id: string</text><ellipse cx="168" cy="667.8047" rx="3" ry="3" style="stroke:#038048;stroke-width:1.0;fill:none;"/><text fill="#000000" font-family="sans-serif" font-size="11" lengthAdjust="spacing" textLength="76" x="177" y="671.0151">Image: byte[]</text><ellipse cx="168" cy="680.6094" rx="3" ry="3" style="stroke:#038048;stroke-width:1.0;fill:none;"/><text fill="#000000" font-family="sans-serif" font-size="11" lengthAdjust="spacing" textLength="88" x="177" y="683.8198">RecipeId: string</text><line style="stroke:#000000;stroke-width:1.5;" x1="158" x2="600" y1="690.4141" y2="690.4141"/><ellipse cx="168" cy="701.4141" fill="#84BE84" rx="3" ry="3" style="stroke:#038048;stroke-width:1.0;"/><text fill="#000000" font-family="sans-serif" font-size="11" lengthAdjust="spacing" textLength="201" x="177" y="704.6245">Save(IFoodImageDal foodImageDal)</text><ellipse cx="168" cy="714.2188" fill="#84BE84" rx="3" ry="3" style="stroke:#038048;stroke-width:1.0;"/><text fill="#000000" font-family="sans-serif" font-size="11" lengthAdjust="spacing" textLength="418" x="177" y="717.4292">FindByRecipeId(string recipeId, IFoodImageDal foodImageDal): FoodImage</text><ellipse cx="168" cy="727.0234" fill="#84BE84" rx="3" ry="3" style="stroke:#038048;stroke-width:1.0;"/><text fill="#000000" font-family="sans-serif" font-size="11" lengthAdjust="spacing" textLength="125" x="177" y="730.2339">Base64Image(): string</text><ellipse cx="168" cy="739.8281" fill="#84BE84" rx="3" ry="3" style="stroke:#038048;stroke-width:1.0;"/><text fill="#000000" font-family="sans-serif" font-size="11" lengthAdjust="spacing" textLength="159" x="177" y="743.0386">Image(imageDto: ImageDto)</text><!--MD5=[b5b7c7bd846c82f771d54fd2be55f5b0]
class CookingBook--><rect codeLine="62" fill="#FEFECE" filter="url(#f1t4to55ta7js0)" height="137.6328" id="CookingBook" style="stroke:#000000;stroke-width:1.5;" width="175" x="642.5" y="408"/><ellipse cx="687.25" cy="424" fill="#ADD1B2" rx="11" ry="11" style="stroke:#000000;stroke-width:1.0;"/><path d="M689.7188,429.875 Q689.1406,430.1875 688.5,430.3438 Q687.8594,430.5 687.1563,430.5 Q684.6563,430.5 683.3281,428.8281 Q682.0156,427.1563 682.0156,424 Q682.0156,420.8438 683.3281,419.1719 Q684.6563,417.5 687.1563,417.5 Q687.8594,417.5 688.5,417.6563 Q689.1563,417.8125 689.7188,418.125 L689.7188,420.9219 Q689.0938,420.3594 688.5,420.0938 Q687.9063,419.8125 687.2813,419.8125 Q685.9375,419.8125 685.25,420.875 Q684.5625,421.9375 684.5625,424 Q684.5625,426.0781 685.25,427.1406 Q685.9375,428.1875 687.2813,428.1875 Q687.9063,428.1875 688.5,427.9219 Q689.0938,427.6563 689.7188,427.0781 L689.7188,429.875 Z " fill="#000000"/><text fill="#000000" font-family="sans-serif" font-size="12" lengthAdjust="spacing" textLength="77" x="707.75" y="428.1543">CookingBook</text><line style="stroke:#000000;stroke-width:1.5;" x1="643.5" x2="816.5" y1="440" y2="440"/><ellipse cx="653.5" cy="451" rx="3" ry="3" style="stroke:#038048;stroke-width:1.0;fill:none;"/><text fill="#000000" font-family="sans-serif" font-size="11" lengthAdjust="spacing" textLength="50" x="662.5" y="454.2104">Id: string</text><ellipse cx="653.5" cy="463.8047" rx="3" ry="3" style="stroke:#038048;stroke-width:1.0;fill:none;"/><text fill="#000000" font-family="sans-serif" font-size="11" lengthAdjust="spacing" textLength="87" x="662.5" y="467.0151">OwnerId: string</text><ellipse cx="653.5" cy="476.6094" rx="3" ry="3" style="stroke:#038048;stroke-width:1.0;fill:none;"/><text fill="#000000" font-family="sans-serif" font-size="11" lengthAdjust="spacing" textLength="73" x="662.5" y="479.8198">Name: string</text><ellipse cx="653.5" cy="489.4141" rx="3" ry="3" style="stroke:#038048;stroke-width:1.0;fill:none;"/><text fill="#000000" font-family="sans-serif" font-size="11" lengthAdjust="spacing" textLength="103" x="662.5" y="492.6245">Description: string</text><ellipse cx="653.5" cy="502.2188" rx="3" ry="3" style="stroke:#038048;stroke-width:1.0;fill:none;"/><text fill="#000000" font-family="sans-serif" font-size="11" lengthAdjust="spacing" textLength="98" x="662.5" y="505.4292">Recipes: Recipe[]</text><line style="stroke:#000000;stroke-width:1.5;" x1="643.5" x2="816.5" y1="512.0234" y2="512.0234"/><ellipse cx="653.5" cy="523.0234" fill="#84BE84" rx="3" ry="3" style="stroke:#038048;stroke-width:1.0;"/><text fill="#000000" font-family="sans-serif" font-size="11" lengthAdjust="spacing" textLength="149" x="662.5" y="526.2339">AddRecipe(recipe: Recipe)</text><ellipse cx="653.5" cy="535.8281" fill="#84BE84" rx="3" ry="3" style="stroke:#038048;stroke-width:1.0;"/><text fill="#000000" font-family="sans-serif" font-size="11" lengthAdjust="spacing" textLength="36" x="662.5" y="539.0386">Save()</text><!--MD5=[859cee6ce7aa23c68d285621be9b09ea]
class CookingBookContainer--><rect codeLine="73" fill="#FEFECE" filter="url(#f1t4to55ta7js0)" height="73.6094" id="CookingBookContainer" style="stroke:#000000;stroke-width:1.5;" width="280" x="817" y="223.5"/><ellipse cx="885.25" cy="239.5" fill="#ADD1B2" rx="11" ry="11" style="stroke:#000000;stroke-width:1.0;"/><path d="M887.7188,245.375 Q887.1406,245.6875 886.5,245.8438 Q885.8594,246 885.1563,246 Q882.6563,246 881.3281,244.3281 Q880.0156,242.6563 880.0156,239.5 Q880.0156,236.3438 881.3281,234.6719 Q882.6563,233 885.1563,233 Q885.8594,233 886.5,233.1563 Q887.1563,233.3125 887.7188,233.625 L887.7188,236.4219 Q887.0938,235.8594 886.5,235.5938 Q885.9063,235.3125 885.2813,235.3125 Q883.9375,235.3125 883.25,236.375 Q882.5625,237.4375 882.5625,239.5 Q882.5625,241.5781 883.25,242.6406 Q883.9375,243.6875 885.2813,243.6875 Q885.9063,243.6875 886.5,243.4219 Q887.0938,243.1563 887.7188,242.5781 L887.7188,245.375 Z " fill="#000000"/><text fill="#000000" font-family="sans-serif" font-size="12" lengthAdjust="spacing" textLength="135" x="905.75" y="243.6543">CookingBookContainer</text><line style="stroke:#000000;stroke-width:1.5;" x1="818" x2="1096" y1="255.5" y2="255.5"/><line style="stroke:#000000;stroke-width:1.5;" x1="818" x2="1096" y1="263.5" y2="263.5"/><ellipse cx="828" cy="274.5" fill="#84BE84" rx="3" ry="3" style="stroke:#038048;stroke-width:1.0;"/><text fill="#000000" font-family="sans-serif" font-size="11" lengthAdjust="spacing" textLength="253" x="837" y="277.7104">GetAllByUserId(string userId): CookingBook[]</text><ellipse cx="828" cy="287.3047" fill="#84BE84" rx="3" ry="3" style="stroke:#038048;stroke-width:1.0;"/><text fill="#000000" font-family="sans-serif" font-size="11" lengthAdjust="spacing" textLength="254" x="837" y="290.5151">FindById(string cookingBookId): CookingBook</text><!--MD5=[3d739da297dea62e73a8d06cb0c8a5de]
link UserContainer to User--><path codeLine="78" d="M555,119.07 C555,119.07 555,173.86 555,173.86 " fill="none" id="UserContainer-to-User" style="stroke:#A80036;stroke-width:1.0;"/><polygon fill="#A80036" points="555,178.86,559,169.86,555,173.86,551,169.86,555,178.86" style="stroke:#A80036;stroke-width:1.0;"/><text fill="#000000" font-family="sans-serif" font-size="13" lengthAdjust="spacing" textLength="37" x="517" y="142.5269">Users</text><text fill="#000000" font-family="sans-serif" font-size="13" lengthAdjust="spacing" textLength="7" x="547.6883" y="167.983">*</text><!--MD5=[9059c252cb0ef76925e1287355a7c02a]
link RecipeContainer to Recipe--><path codeLine="79" d="M248.25,323.12 C248.25,323.12 248.25,396.87 248.25,396.87 " fill="none" id="RecipeContainer-to-Recipe" style="stroke:#A80036;stroke-width:1.0;"/><polygon fill="#A80036" points="248.25,401.87,252.25,392.87,248.25,396.87,244.25,392.87,248.25,401.87" style="stroke:#A80036;stroke-width:1.0;"/><text fill="#000000" font-family="sans-serif" font-size="13" lengthAdjust="spacing" textLength="51" x="196.25" y="356.0669">Recipes</text><text fill="#000000" font-family="sans-serif" font-size="13" lengthAdjust="spacing" textLength="7" x="228.4543" y="391.0467">*</text><!--MD5=[da4058a0077cb8bcbee3648c177fb368]
link User to Recipe--><path codeLine="80" d="M441.5,342.04 C441.5,342.04 441.5,396.96 441.5,396.96 " fill="none" id="User-to-Recipe" style="stroke:#A80036;stroke-width:1.0;"/><polygon fill="#A80036" points="441.5,401.96,445.5,392.96,441.5,396.96,437.5,392.96,441.5,401.96" style="stroke:#A80036;stroke-width:1.0;"/><text fill="#000000" font-family="sans-serif" font-size="13" lengthAdjust="spacing" textLength="8" x="422.668" y="362.3102">1</text><text fill="#000000" font-family="sans-serif" font-size="13" lengthAdjust="spacing" textLength="7" x="440.3078" y="390.8869">*</text><!--MD5=[5a0aaa72111ca041e9df676545d6d1c1]
link CookingBookContainer to CookingBook--><path codeLine="81" d="M816.73,261 C806.01,261 799.25,261 799.25,261 C799.25,261 799.25,402.76 799.25,402.76 " fill="none" id="CookingBookContainer-to-CookingBook" style="stroke:#A80036;stroke-width:1.0;"/><polygon fill="#A80036" points="799.25,407.76,803.2757,398.7715,799.2643,402.76,795.2757,398.7486,799.25,407.76" style="stroke:#A80036;stroke-width:1.0;"/><text fill="#000000" font-family="sans-serif" font-size="13" lengthAdjust="spacing" textLength="93" x="800.25" y="319.2069">CookingBooks</text><text fill="#000000" font-family="sans-serif" font-size="13" lengthAdjust="spacing" textLength="7" x="799.0305" y="396.9389">*</text><!--MD5=[662bc65bcde36738162e978924ae0d2d]
link User to CookingBook--><path codeLine="82" d="M712,342.04 C712,342.04 712,402.92 712,402.92 " fill="none" id="User-to-CookingBook" style="stroke:#A80036;stroke-width:1.0;"/><polygon fill="#A80036" points="712,407.92,716,398.92,712,402.92,708,398.92,712,407.92" style="stroke:#A80036;stroke-width:1.0;"/><text fill="#000000" font-family="sans-serif" font-size="13" lengthAdjust="spacing" textLength="7" x="719.1508" y="362.3102">*</text><text fill="#000000" font-family="sans-serif" font-size="13" lengthAdjust="spacing" textLength="7" x="702.7828" y="397.1154">*</text><!--MD5=[59e5b2fd1c74e4b5da31d9eeedc90393]
link Recipe to FoodImage--><path codeLine="83" d="M379,552.09 C379,552.09 379,606.81 379,606.81 " fill="none" id="Recipe-to-FoodImage" style="stroke:#A80036;stroke-width:1.0;"/><polygon fill="#A80036" points="379,611.81,383,602.81,379,606.81,375,602.81,379,611.81" style="stroke:#A80036;stroke-width:1.0;"/><text fill="#000000" font-family="sans-serif" font-size="13" lengthAdjust="spacing" textLength="8" x="370.5875" y="572.6583">1</text><text fill="#000000" font-family="sans-serif" font-size="13" lengthAdjust="spacing" textLength="8" x="370.5875" y="600.994">1</text><!--MD5=[2a0767a2f0c0cd6f0a647152199a234f]
@startuml
skinparam linetype ortho
skinparam shadowing true
skinparam handwritten false

skinparam class {
    BorderColor black
}

class User {
    + Id: string
    + Username: string
    + Password: string
    + Recipes: Recipe[]
    + CookingBooks: CookingBook[]
    
    + AddRecipe(recipe: Recipe)
    + User(userDto: UserDto)
    + Save(IUserDal userDal, IRecipeDal recipeDal, IFoodImageDal foodImageDal)
    + User(username: string)
}

class UserContainer {
    + AddUser(user: User)
    + RemoveUser(user: User)
    + FindByUsername(username: string)
    + FindById(userId: string)
    + GetAll(): User[]
}

class Recipe {
    + Id: string
    + UserId: string
    + Title: string
    + FoodImage: FoodImage
    + Preparations: string
    + Ingredients: string
    
    + Save(IRecipeDal recipeDal, IFoodImageDal foodImageDal)
    + Recipe(recipeDto: RecipeDto, imageDto: ImageDto)
}

class RecipeContainer {
    + EditRecipe(Recipe recipe)
    + FindAllByCookingBookId(string cookingBookId)
    + FindAllByUserId(string userId)
    + FindById(string recipeId)
    + AddRecipe(recipe: Recipe)
    + RemoveRecipe(recipe: Recipe)
}

class FoodImage {
    + Id: string
    + Image: byte[]
    + RecipeId: string
    
    + Save(IFoodImageDal foodImageDal)
    + FindByRecipeId(string recipeId, IFoodImageDal foodImageDal): FoodImage
    + Base64Image(): string
    + Image(imageDto: ImageDto)
}

class CookingBook {
    + Id: string
    + OwnerId: string
    + Name: string
    + Description: string
    + Recipes: Recipe[]
    
    + AddRecipe(recipe: Recipe)
    + Save()
}

class CookingBookContainer {
    + GetAllByUserId(string userId): CookingBook[]
    + FindById(string cookingBookId): CookingBook
}

UserContainer - -> "*" User : Users
RecipeContainer - -> "*" Recipe : Recipes
User "1" - -> "*" Recipe
CookingBookContainer - -> "*" CookingBook: CookingBooks
User "*" - -> "*" CookingBook
Recipe "1" - -> "1" FoodImage
@enduml

PlantUML version 1.2021.11(Sat Oct 02 15:26:11 CEST 2021)
(GPL source distribution)
Java Runtime: OpenJDK Runtime Environment
JVM: Dynamic Code Evolution 64-Bit Server VM
Default Encoding: UTF-8
Language: en
Country: US
--></g></svg>