<?xml version="1.0" encoding="UTF-8" standalone="no"?><svg xmlns="http://www.w3.org/2000/svg" xmlns:xlink="http://www.w3.org/1999/xlink" contentScriptType="application/ecmascript" contentStyleType="text/css" height="725px" preserveAspectRatio="none" style="width:548px;height:725px;background:#FFFFFF;" version="1.1" viewBox="0 0 548 725" width="548px" zoomAndPan="magnify"><defs><filter height="300%" id="fc4f3sedd65m0" width="300%" x="-1" y="-1"><feGaussianBlur result="blurOut" stdDeviation="2.0"/><feColorMatrix in="blurOut" result="blurOut2" type="matrix" values="0 0 0 0 0 0 0 0 0 0 0 0 0 0 0 0 0 0 .4 0"/><feOffset dx="4.0" dy="4.0" in="blurOut2" result="blurOut3"/><feBlend in="SourceGraphic" in2="blurOut3" mode="normal"/></filter></defs><g><!--MD5=[3fd616f346a44cd59a91eb10b19e157c]
class User--><rect codeLine="10" fill="#FFFFFF" filter="url(#fc4f3sedd65m0)" height="163.2422" id="User" style="stroke:#2688D4;stroke-width:1.5;" width="194" x="323.5" y="166"/><ellipse cx="402.75" cy="182" fill="#ADD1B2" rx="11" ry="11" style="stroke:#2688D4;stroke-width:1.0;"/><path d="M405.2188,187.875 Q404.6406,188.1875 404,188.3438 Q403.3594,188.5 402.6563,188.5 Q400.1563,188.5 398.8281,186.8281 Q397.5156,185.1563 397.5156,182 Q397.5156,178.8438 398.8281,177.1719 Q400.1563,175.5 402.6563,175.5 Q403.3594,175.5 404,175.6563 Q404.6563,175.8125 405.2188,176.125 L405.2188,178.9219 Q404.5938,178.3594 404,178.0938 Q403.4063,177.8125 402.7813,177.8125 Q401.4375,177.8125 400.75,178.875 Q400.0625,179.9375 400.0625,182 Q400.0625,184.0781 400.75,185.1406 Q401.4375,186.1875 402.7813,186.1875 Q403.4063,186.1875 404,185.9219 Q404.5938,185.6563 405.2188,185.0781 L405.2188,187.875 Z " fill="#000000"/><text fill="#000000" font-family="sans-serif" font-size="12" lengthAdjust="spacing" textLength="27" x="423.25" y="186.1543">User</text><line style="stroke:#2688D4;stroke-width:1.5;" x1="324.5" x2="516.5" y1="198" y2="198"/><ellipse cx="334.5" cy="209" rx="3" ry="3" style="stroke:#038048;stroke-width:1.0;fill:none;"/><text fill="#000000" font-family="sans-serif" font-size="11" lengthAdjust="spacing" textLength="50" x="343.5" y="212.2104">Id: string</text><ellipse cx="334.5" cy="221.8047" rx="3" ry="3" style="stroke:#038048;stroke-width:1.0;fill:none;"/><text fill="#000000" font-family="sans-serif" font-size="11" lengthAdjust="spacing" textLength="98" x="343.5" y="225.0151">Username: string</text><ellipse cx="334.5" cy="234.6094" rx="3" ry="3" style="stroke:#038048;stroke-width:1.0;fill:none;"/><text fill="#000000" font-family="sans-serif" font-size="11" lengthAdjust="spacing" textLength="98" x="343.5" y="237.8198">Recipes: Recipe[]</text><ellipse cx="334.5" cy="247.4141" rx="3" ry="3" style="stroke:#038048;stroke-width:1.0;fill:none;"/><text fill="#000000" font-family="sans-serif" font-size="11" lengthAdjust="spacing" textLength="168" x="343.5" y="250.6245">CookingBooks: CookingBook[]</text><line style="stroke:#2688D4;stroke-width:1.5;" x1="324.5" x2="516.5" y1="257.2188" y2="257.2188"/><ellipse cx="334.5" cy="268.2188" fill="#84BE84" rx="3" ry="3" style="stroke:#038048;stroke-width:1.0;"/><text fill="#000000" font-family="sans-serif" font-size="11" lengthAdjust="spacing" textLength="149" x="343.5" y="271.4292">AddRecipe(recipe: Recipe)</text><ellipse cx="334.5" cy="281.0234" fill="#84BE84" rx="3" ry="3" style="stroke:#038048;stroke-width:1.0;"/><text fill="#000000" font-family="sans-serif" font-size="11" lengthAdjust="spacing" textLength="48" x="343.5" y="284.2339">Update()</text><ellipse cx="334.5" cy="293.8281" fill="#84BE84" rx="3" ry="3" style="stroke:#038048;stroke-width:1.0;"/><text fill="#000000" font-family="sans-serif" font-size="11" lengthAdjust="spacing" textLength="131" x="343.5" y="297.0386">User(userDto: UserDto)</text><ellipse cx="334.5" cy="306.6328" fill="#84BE84" rx="3" ry="3" style="stroke:#038048;stroke-width:1.0;"/><text fill="#000000" font-family="sans-serif" font-size="11" lengthAdjust="spacing" textLength="36" x="343.5" y="309.8433">Save()</text><ellipse cx="334.5" cy="319.4375" fill="#84BE84" rx="3" ry="3" style="stroke:#038048;stroke-width:1.0;"/><text fill="#000000" font-family="sans-serif" font-size="11" lengthAdjust="spacing" textLength="131" x="343.5" y="322.6479">User(username: string)</text><!--MD5=[c913ee1f9e7d97ed5028e395c434d958]
class UserContainer--><rect codeLine="23" fill="#FFFFFF" filter="url(#fc4f3sedd65m0)" height="99.2188" id="UserContainer" style="stroke:#2688D4;stroke-width:1.5;" width="227" x="307" y="7"/><ellipse cx="373.75" cy="23" fill="#ADD1B2" rx="11" ry="11" style="stroke:#2688D4;stroke-width:1.0;"/><path d="M376.2188,28.875 Q375.6406,29.1875 375,29.3438 Q374.3594,29.5 373.6563,29.5 Q371.1563,29.5 369.8281,27.8281 Q368.5156,26.1563 368.5156,23 Q368.5156,19.8438 369.8281,18.1719 Q371.1563,16.5 373.6563,16.5 Q374.3594,16.5 375,16.6563 Q375.6563,16.8125 376.2188,17.125 L376.2188,19.9219 Q375.5938,19.3594 375,19.0938 Q374.4063,18.8125 373.7813,18.8125 Q372.4375,18.8125 371.75,19.875 Q371.0625,20.9375 371.0625,23 Q371.0625,25.0781 371.75,26.1406 Q372.4375,27.1875 373.7813,27.1875 Q374.4063,27.1875 375,26.9219 Q375.5938,26.6563 376.2188,26.0781 L376.2188,28.875 Z " fill="#000000"/><text fill="#000000" font-family="sans-serif" font-size="12" lengthAdjust="spacing" textLength="85" x="394.25" y="27.1543">UserContainer</text><line style="stroke:#2688D4;stroke-width:1.5;" x1="308" x2="533" y1="39" y2="39"/><line style="stroke:#2688D4;stroke-width:1.5;" x1="308" x2="533" y1="47" y2="47"/><ellipse cx="318" cy="58" fill="#84BE84" rx="3" ry="3" style="stroke:#038048;stroke-width:1.0;"/><text fill="#000000" font-family="sans-serif" font-size="11" lengthAdjust="spacing" textLength="115" x="327" y="61.2104">AddUser(user: User)</text><ellipse cx="318" cy="70.8047" fill="#84BE84" rx="3" ry="3" style="stroke:#038048;stroke-width:1.0;"/><text fill="#000000" font-family="sans-serif" font-size="11" lengthAdjust="spacing" textLength="140" x="327" y="74.0151">RemoveUser(user: User)</text><ellipse cx="318" cy="83.6094" fill="#84BE84" rx="3" ry="3" style="stroke:#038048;stroke-width:1.0;"/><text fill="#000000" font-family="sans-serif" font-size="11" lengthAdjust="spacing" textLength="201" x="327" y="86.8198">FindByUsername(username: string)</text><ellipse cx="318" cy="96.4141" fill="#84BE84" rx="3" ry="3" style="stroke:#038048;stroke-width:1.0;"/><text fill="#000000" font-family="sans-serif" font-size="11" lengthAdjust="spacing" textLength="131" x="327" y="99.6245">FindById(userId: string)</text><!--MD5=[20418cb98520644da1e87dc0310aa74a]
class Recipe--><rect codeLine="30" fill="#FFFFFF" filter="url(#fc4f3sedd65m0)" height="150.4375" id="Recipe" style="stroke:#2688D4;stroke-width:1.5;" width="315" x="7" y="389"/><ellipse cx="140.25" cy="405" fill="#ADD1B2" rx="11" ry="11" style="stroke:#2688D4;stroke-width:1.0;"/><path d="M142.7188,410.875 Q142.1406,411.1875 141.5,411.3438 Q140.8594,411.5 140.1563,411.5 Q137.6563,411.5 136.3281,409.8281 Q135.0156,408.1563 135.0156,405 Q135.0156,401.8438 136.3281,400.1719 Q137.6563,398.5 140.1563,398.5 Q140.8594,398.5 141.5,398.6563 Q142.1563,398.8125 142.7188,399.125 L142.7188,401.9219 Q142.0938,401.3594 141.5,401.0938 Q140.9063,400.8125 140.2813,400.8125 Q138.9375,400.8125 138.25,401.875 Q137.5625,402.9375 137.5625,405 Q137.5625,407.0781 138.25,408.1406 Q138.9375,409.1875 140.2813,409.1875 Q140.9063,409.1875 141.5,408.9219 Q142.0938,408.6563 142.7188,408.0781 L142.7188,410.875 Z " fill="#000000"/><text fill="#000000" font-family="sans-serif" font-size="12" lengthAdjust="spacing" textLength="40" x="160.75" y="409.1543">Recipe</text><line style="stroke:#2688D4;stroke-width:1.5;" x1="8" x2="321" y1="421" y2="421"/><ellipse cx="18" cy="432" rx="3" ry="3" style="stroke:#038048;stroke-width:1.0;fill:none;"/><text fill="#000000" font-family="sans-serif" font-size="11" lengthAdjust="spacing" textLength="50" x="27" y="435.2104">Id: string</text><ellipse cx="18" cy="444.8047" rx="3" ry="3" style="stroke:#038048;stroke-width:1.0;fill:none;"/><text fill="#000000" font-family="sans-serif" font-size="11" lengthAdjust="spacing" textLength="76" x="27" y="448.0151">UserId: string</text><ellipse cx="18" cy="457.6094" rx="3" ry="3" style="stroke:#038048;stroke-width:1.0;fill:none;"/><text fill="#000000" font-family="sans-serif" font-size="11" lengthAdjust="spacing" textLength="64" x="27" y="460.8198">Title: string</text><ellipse cx="18" cy="470.4141" rx="3" ry="3" style="stroke:#038048;stroke-width:1.0;fill:none;"/><text fill="#000000" font-family="sans-serif" font-size="11" lengthAdjust="spacing" textLength="132" x="27" y="473.6245">FoodImage: FoodImage</text><ellipse cx="18" cy="483.2188" rx="3" ry="3" style="stroke:#038048;stroke-width:1.0;fill:none;"/><text fill="#000000" font-family="sans-serif" font-size="11" lengthAdjust="spacing" textLength="112" x="27" y="486.4292">Preparations: string</text><ellipse cx="18" cy="496.0234" rx="3" ry="3" style="stroke:#038048;stroke-width:1.0;fill:none;"/><text fill="#000000" font-family="sans-serif" font-size="11" lengthAdjust="spacing" textLength="103" x="27" y="499.2339">Ingredients: string</text><line style="stroke:#2688D4;stroke-width:1.5;" x1="8" x2="321" y1="505.8281" y2="505.8281"/><ellipse cx="18" cy="516.8281" fill="#84BE84" rx="3" ry="3" style="stroke:#038048;stroke-width:1.0;"/><text fill="#000000" font-family="sans-serif" font-size="11" lengthAdjust="spacing" textLength="48" x="27" y="520.0386">Update()</text><ellipse cx="18" cy="529.6328" fill="#84BE84" rx="3" ry="3" style="stroke:#038048;stroke-width:1.0;"/><text fill="#000000" font-family="sans-serif" font-size="11" lengthAdjust="spacing" textLength="289" x="27" y="532.8433">Recipe(recipeDto: RecipeDto, imageDto: ImageDto)</text><!--MD5=[e84758e3c63f7940b5bba305527ac989]
class RecipeContainer--><rect codeLine="42" fill="#FFFFFF" filter="url(#fc4f3sedd65m0)" height="73.6094" id="RecipeContainer" style="stroke:#2688D4;stroke-width:1.5;" width="200" x="64.5" y="210.5"/><ellipse cx="111.25" cy="226.5" fill="#ADD1B2" rx="11" ry="11" style="stroke:#2688D4;stroke-width:1.0;"/><path d="M113.7188,232.375 Q113.1406,232.6875 112.5,232.8438 Q111.8594,233 111.1563,233 Q108.6563,233 107.3281,231.3281 Q106.0156,229.6563 106.0156,226.5 Q106.0156,223.3438 107.3281,221.6719 Q108.6563,220 111.1563,220 Q111.8594,220 112.5,220.1563 Q113.1563,220.3125 113.7188,220.625 L113.7188,223.4219 Q113.0938,222.8594 112.5,222.5938 Q111.9063,222.3125 111.2813,222.3125 Q109.9375,222.3125 109.25,223.375 Q108.5625,224.4375 108.5625,226.5 Q108.5625,228.5781 109.25,229.6406 Q109.9375,230.6875 111.2813,230.6875 Q111.9063,230.6875 112.5,230.4219 Q113.0938,230.1563 113.7188,229.5781 L113.7188,232.375 Z " fill="#000000"/><text fill="#000000" font-family="sans-serif" font-size="12" lengthAdjust="spacing" textLength="98" x="131.75" y="230.6543">RecipeContainer</text><line style="stroke:#2688D4;stroke-width:1.5;" x1="65.5" x2="263.5" y1="242.5" y2="242.5"/><line style="stroke:#2688D4;stroke-width:1.5;" x1="65.5" x2="263.5" y1="250.5" y2="250.5"/><ellipse cx="75.5" cy="261.5" fill="#84BE84" rx="3" ry="3" style="stroke:#038048;stroke-width:1.0;"/><text fill="#000000" font-family="sans-serif" font-size="11" lengthAdjust="spacing" textLength="149" x="84.5" y="264.7104">AddRecipe(recipe: Recipe)</text><ellipse cx="75.5" cy="274.3047" fill="#84BE84" rx="3" ry="3" style="stroke:#038048;stroke-width:1.0;"/><text fill="#000000" font-family="sans-serif" font-size="11" lengthAdjust="spacing" textLength="174" x="84.5" y="277.5151">RemoveRecipe(recipe: Recipe)</text><!--MD5=[5b08311be8095210946f0291378eb0f5]
class FoodImage--><rect codeLine="47" fill="#FFFFFF" filter="url(#fc4f3sedd65m0)" height="112.0234" id="FoodImage" style="stroke:#2688D4;stroke-width:1.5;" width="185" x="72" y="599"/><ellipse cx="126.75" cy="615" fill="#ADD1B2" rx="11" ry="11" style="stroke:#2688D4;stroke-width:1.0;"/><path d="M129.2188,620.875 Q128.6406,621.1875 128,621.3438 Q127.3594,621.5 126.6563,621.5 Q124.1563,621.5 122.8281,619.8281 Q121.5156,618.1563 121.5156,615 Q121.5156,611.8438 122.8281,610.1719 Q124.1563,608.5 126.6563,608.5 Q127.3594,608.5 128,608.6563 Q128.6563,608.8125 129.2188,609.125 L129.2188,611.9219 Q128.5938,611.3594 128,611.0938 Q127.4063,610.8125 126.7813,610.8125 Q125.4375,610.8125 124.75,611.875 Q124.0625,612.9375 124.0625,615 Q124.0625,617.0781 124.75,618.1406 Q125.4375,619.1875 126.7813,619.1875 Q127.4063,619.1875 128,618.9219 Q128.5938,618.6563 129.2188,618.0781 L129.2188,620.875 Z " fill="#000000"/><text fill="#000000" font-family="sans-serif" font-size="12" lengthAdjust="spacing" textLength="67" x="147.25" y="619.1543">FoodImage</text><line style="stroke:#2688D4;stroke-width:1.5;" x1="73" x2="256" y1="631" y2="631"/><ellipse cx="83" cy="642" rx="3" ry="3" style="stroke:#038048;stroke-width:1.0;fill:none;"/><text fill="#000000" font-family="sans-serif" font-size="11" lengthAdjust="spacing" textLength="50" x="92" y="645.2104">Id: string</text><ellipse cx="83" cy="654.8047" rx="3" ry="3" style="stroke:#038048;stroke-width:1.0;fill:none;"/><text fill="#000000" font-family="sans-serif" font-size="11" lengthAdjust="spacing" textLength="76" x="92" y="658.0151">Image: byte[]</text><ellipse cx="83" cy="667.6094" rx="3" ry="3" style="stroke:#038048;stroke-width:1.0;fill:none;"/><text fill="#000000" font-family="sans-serif" font-size="11" lengthAdjust="spacing" textLength="88" x="92" y="670.8198">RecipeId: string</text><line style="stroke:#2688D4;stroke-width:1.5;" x1="73" x2="256" y1="677.4141" y2="677.4141"/><ellipse cx="83" cy="688.4141" fill="#84BE84" rx="3" ry="3" style="stroke:#038048;stroke-width:1.0;"/><text fill="#000000" font-family="sans-serif" font-size="11" lengthAdjust="spacing" textLength="48" x="92" y="691.6245">Update()</text><ellipse cx="83" cy="701.2188" fill="#84BE84" rx="3" ry="3" style="stroke:#038048;stroke-width:1.0;"/><text fill="#000000" font-family="sans-serif" font-size="11" lengthAdjust="spacing" textLength="159" x="92" y="704.4292">Image(imageDto: ImageDto)</text><!--MD5=[b5b7c7bd846c82f771d54fd2be55f5b0]
class CookingBook--><rect codeLine="56" fill="#FFFFFF" filter="url(#fc4f3sedd65m0)" height="112.0234" id="CookingBook" style="stroke:#2688D4;stroke-width:1.5;" width="175" x="357" y="408"/><ellipse cx="401.75" cy="424" fill="#ADD1B2" rx="11" ry="11" style="stroke:#2688D4;stroke-width:1.0;"/><path d="M404.2188,429.875 Q403.6406,430.1875 403,430.3438 Q402.3594,430.5 401.6563,430.5 Q399.1563,430.5 397.8281,428.8281 Q396.5156,427.1563 396.5156,424 Q396.5156,420.8438 397.8281,419.1719 Q399.1563,417.5 401.6563,417.5 Q402.3594,417.5 403,417.6563 Q403.6563,417.8125 404.2188,418.125 L404.2188,420.9219 Q403.5938,420.3594 403,420.0938 Q402.4063,419.8125 401.7813,419.8125 Q400.4375,419.8125 399.75,420.875 Q399.0625,421.9375 399.0625,424 Q399.0625,426.0781 399.75,427.1406 Q400.4375,428.1875 401.7813,428.1875 Q402.4063,428.1875 403,427.9219 Q403.5938,427.6563 404.2188,427.0781 L404.2188,429.875 Z " fill="#000000"/><text fill="#000000" font-family="sans-serif" font-size="12" lengthAdjust="spacing" textLength="77" x="422.25" y="428.1543">CookingBook</text><line style="stroke:#2688D4;stroke-width:1.5;" x1="358" x2="531" y1="440" y2="440"/><ellipse cx="368" cy="451" rx="3" ry="3" style="stroke:#038048;stroke-width:1.0;fill:none;"/><text fill="#000000" font-family="sans-serif" font-size="11" lengthAdjust="spacing" textLength="50" x="377" y="454.2104">Id: string</text><ellipse cx="368" cy="463.8047" rx="3" ry="3" style="stroke:#038048;stroke-width:1.0;fill:none;"/><text fill="#000000" font-family="sans-serif" font-size="11" lengthAdjust="spacing" textLength="73" x="377" y="467.0151">Name: string</text><ellipse cx="368" cy="476.6094" rx="3" ry="3" style="stroke:#038048;stroke-width:1.0;fill:none;"/><text fill="#000000" font-family="sans-serif" font-size="11" lengthAdjust="spacing" textLength="103" x="377" y="479.8198">Description: string</text><ellipse cx="368" cy="489.4141" rx="3" ry="3" style="stroke:#038048;stroke-width:1.0;fill:none;"/><text fill="#000000" font-family="sans-serif" font-size="11" lengthAdjust="spacing" textLength="98" x="377" y="492.6245">Recipes: Recipe[]</text><line style="stroke:#2688D4;stroke-width:1.5;" x1="358" x2="531" y1="499.2188" y2="499.2188"/><ellipse cx="368" cy="510.2188" fill="#84BE84" rx="3" ry="3" style="stroke:#038048;stroke-width:1.0;"/><text fill="#000000" font-family="sans-serif" font-size="11" lengthAdjust="spacing" textLength="149" x="377" y="513.4292">AddRecipe(recipe: Recipe)</text><!--MD5=[3d739da297dea62e73a8d06cb0c8a5de]
link UserContainer to User--><path codeLine="65" d="M420.5,106.18 C420.5,106.18 420.5,160.89 420.5,160.89 " fill="none" id="UserContainer-to-User" style="stroke:#A80036;stroke-width:1.0;"/><polygon fill="#A80036" points="420.5,165.89,424.5,156.89,420.5,160.89,416.5,156.89,420.5,165.89" style="stroke:#A80036;stroke-width:1.0;"/><text fill="#000000" font-family="sans-serif" font-size="13" lengthAdjust="spacing" textLength="37" x="382.5" y="129.5969">Users</text><text fill="#000000" font-family="sans-serif" font-size="13" lengthAdjust="spacing" textLength="7" x="413.1883" y="155.0157">*</text><!--MD5=[9059c252cb0ef76925e1287355a7c02a]
link RecipeContainer to Recipe--><path codeLine="66" d="M164.5,284.72 C164.5,284.72 164.5,383.75 164.5,383.75 " fill="none" id="RecipeContainer-to-Recipe" style="stroke:#A80036;stroke-width:1.0;"/><polygon fill="#A80036" points="164.5,388.75,168.5,379.75,164.5,383.75,160.5,379.75,164.5,388.75" style="stroke:#A80036;stroke-width:1.0;"/><text fill="#000000" font-family="sans-serif" font-size="13" lengthAdjust="spacing" textLength="51" x="112.5" y="330.2969">Recipes</text><text fill="#000000" font-family="sans-serif" font-size="13" lengthAdjust="spacing" textLength="7" x="157.1664" y="377.9153">*</text><!--MD5=[da4058a0077cb8bcbee3648c177fb368]
link User to Recipe--><path codeLine="67" d="M340.25,329.02 C340.25,364.87 340.25,399 340.25,399 C340.25,399 327.1,399 327.1,399 " fill="none" id="User-to-Recipe" style="stroke:#A80036;stroke-width:1.0;"/><polygon fill="#A80036" points="322.1,399,331.1,403,327.1,399,331.1,395,322.1,399" style="stroke:#A80036;stroke-width:1.0;"/><text fill="#000000" font-family="sans-serif" font-size="13" lengthAdjust="spacing" textLength="8" x="324.4832" y="349.2884">1</text><text fill="#000000" font-family="sans-serif" font-size="13" lengthAdjust="spacing" textLength="7" x="329.9033" y="392.5478">*</text><!--MD5=[662bc65bcde36738162e978924ae0d2d]
link User to CookingBook--><path codeLine="68" d="M437.25,329.04 C437.25,329.04 437.25,402.78 437.25,402.78 " fill="none" id="User-to-CookingBook" style="stroke:#A80036;stroke-width:1.0;"/><polygon fill="#A80036" points="437.25,407.78,441.25,398.78,437.25,402.78,433.25,398.78,437.25,407.78" style="stroke:#A80036;stroke-width:1.0;"/><text fill="#000000" font-family="sans-serif" font-size="13" lengthAdjust="spacing" textLength="7" x="431.4715" y="349.3102">*</text><text fill="#000000" font-family="sans-serif" font-size="13" lengthAdjust="spacing" textLength="7" x="428.9398" y="397.0877">*</text><!--MD5=[59e5b2fd1c74e4b5da31d9eeedc90393]
link Recipe to FoodImage--><path codeLine="69" d="M164.5,539.21 C164.5,539.21 164.5,593.75 164.5,593.75 " fill="none" id="Recipe-to-FoodImage" style="stroke:#A80036;stroke-width:1.0;"/><polygon fill="#A80036" points="164.5,598.75,168.5,589.75,164.5,593.75,160.5,589.75,164.5,598.75" style="stroke:#A80036;stroke-width:1.0;"/><text fill="#000000" font-family="sans-serif" font-size="13" lengthAdjust="spacing" textLength="8" x="156.1063" y="559.4037">1</text><text fill="#000000" font-family="sans-serif" font-size="13" lengthAdjust="spacing" textLength="8" x="156.0125" y="588.054">1</text><!--MD5=[511eef685ab5d6536729920b2a589b42]
@startuml
skinparam linetype ortho
skinparam shadowing true
skinparam handwritten false

skinparam class {
    BackgroundColor white
    BorderColor #2688d4
}

class User {
    + Id: string
    + Username: string
    + Recipes: Recipe[]
    + CookingBooks: CookingBook[]
    
    + AddRecipe(recipe: Recipe)
    + Update()
    + User(userDto: UserDto)
    + Save()
    + User(username: string)
}

class UserContainer {
    + AddUser(user: User)
    + RemoveUser(user: User)
    + FindByUsername(username: string)
    + FindById(userId: string)
}

class Recipe {
    + Id: string
    + UserId: string
    + Title: string
    + FoodImage: FoodImage
    + Preparations: string
    + Ingredients: string
    
    + Update()
    + Recipe(recipeDto: RecipeDto, imageDto: ImageDto)
}

class RecipeContainer {
    + AddRecipe(recipe: Recipe)
    + RemoveRecipe(recipe: Recipe)
}

class FoodImage {
    + Id: string
    + Image: byte[]
    + RecipeId: string
    
    + Update()
    + Image(imageDto: ImageDto)
}

class CookingBook {
    + Id: string
    + Name: string
    + Description: string
    + Recipes: Recipe[]
    
    + AddRecipe(recipe: Recipe)
}

UserContainer - -> "*" User : Users
RecipeContainer - -> "*" Recipe : Recipes
User "1" - -> "*" Recipe
User "*" - -> "*" CookingBook
Recipe "1" - -> "1" FoodImage
@enduml

PlantUML version 1.2021.11(Sat Oct 02 15:26:11 CEST 2021)
(GPL source distribution)
Java Runtime: OpenJDK Runtime Environment
JVM: Dynamic Code Evolution 64-Bit Server VM
Default Encoding: UTF-8
Language: en
Country: US
--></g></svg>